<svg width="1727" height="1164" viewBox="0 0 1727 1164" fill="none" xmlns="http://www.w3.org/2000/svg">
<path d="M1116.67 263.878C1149.37 263.878 1175.88 237.378 1175.88 204.688C1175.88 171.997 1149.37 145.497 1116.67 145.497C1083.97 145.497 1057.46 171.997 1057.46 204.688C1057.46 237.378 1083.97 263.878 1116.67 263.878Z" fill="#F2F2F2"/>
<path d="M1344.57 619.752L331.233 0L-6.19388e-05 541.196L1013.33 1160.95L1344.57 619.752Z" fill="#F2F2F2"/>
<path d="M1254.94 790.249C1245.69 768.977 1231.45 750.295 1202.95 734.573C1188.22 726.249 1172.4 720.023 1155.95 716.076C1167.02 710.935 1177.2 704.066 1186.11 695.729C1199.21 684.023 1209.14 669.198 1214.98 652.63C1220.35 635.794 1222.55 618.107 1221.45 600.469C1219.42 569.393 1213.31 539.243 1197.03 517.601C1180.74 495.96 1157.8 479.312 1127.45 467.659C1104.14 458.781 1080.27 453.231 1043.26 451.197V333L969.246 379.243V451.382H910.034V375.543L834.168 333V451.382H673L724.811 540.168C740.817 540.186 751.66 541.666 757.192 544.422C762.357 546.632 766.604 550.551 769.22 555.521C771.625 560.145 772.736 571.058 772.736 587.891V908.261C772.736 924.908 771.625 935.637 769.22 940.446C766.814 945.255 765.519 949.51 759.783 952.099C754.047 954.689 753.862 954.504 737.948 954.504H737.763L673 1043.29H833.983V1161.67H909.849V1043.29H969.061V1161.67H1043.08V1042.55C1091.19 1040.15 1125.42 1033.86 1152.99 1023.5C1188.7 1010.18 1216.09 990.758 1235.7 965.232C1255.31 939.706 1263.27 900.677 1264.94 870.527C1266.23 843.706 1263.27 809.116 1254.94 790.249ZM909.849 551.266H909.867V548.806H961.604C990.711 548.806 1087.71 539.114 1089.32 618.3C1090.95 697.486 961.604 694.249 961.604 694.249H909.867V688.145H909.849V551.266ZM909.849 776.931H969.061C981.089 776.931 1022.46 778.763 1037.53 779.447C1043.67 779.67 1049.75 780.753 1055.58 782.665C1057.71 783.387 1059.73 784.201 1061.91 785.107C1071.04 788.055 1079.65 792.411 1087.43 798.018C1092.5 801.367 1096.96 805.558 1100.62 810.411C1102.21 812.601 1103.67 814.88 1104.99 817.237C1108.49 823.163 1111.09 829.578 1112.71 836.27C1114.47 842.734 1115.38 849.399 1115.43 856.099C1115.43 870.508 1112.76 882.439 1106.19 892.538C1097.29 907.447 1082.69 918.009 1066.26 925.463C1023.78 944.774 969.061 943.405 969.061 943.405H909.849V776.931Z" fill="#3F3D56"/>
<path opacity="0.3" d="M1132.69 207.178C1132.13 205.792 1131.1 204.648 1129.78 203.947C1128.96 203.465 1128.07 203.104 1127.15 202.874C1127.77 202.573 1128.34 202.174 1128.84 201.693C1129.57 201.006 1130.13 200.147 1130.45 199.191C1130.76 198.212 1130.88 197.187 1130.82 196.164C1130.81 194.466 1130.34 192.802 1129.45 191.355C1128.45 190.033 1127.1 189.026 1125.55 188.456C1124.04 187.872 1122.44 187.549 1120.83 187.501V180.641L1116.68 183.325V187.512H1113.36V183.11L1109.11 180.641V187.512H1100.07L1102.98 192.664C1103.59 192.622 1104.21 192.706 1104.79 192.911C1105.08 193.042 1105.32 193.27 1105.47 193.556C1105.64 194.165 1105.71 194.801 1105.66 195.434V214.027C1105.71 214.656 1105.64 215.289 1105.47 215.895C1105.33 216.174 1105.26 216.421 1104.94 216.571C1104.61 216.722 1104.6 216.711 1103.71 216.711H1103.7L1100.07 221.864H1109.1V228.734H1113.35V221.864H1116.67V228.734H1120.82V221.821C1122.92 221.783 1125 221.41 1126.98 220.715C1128.82 220.058 1130.43 218.884 1131.62 217.333C1132.65 215.684 1133.22 213.784 1133.25 211.837C1133.36 210.263 1133.17 208.682 1132.69 207.178ZM1113.35 193.309H1113.35V193.166H1116.25C1117.88 193.166 1123.32 192.603 1123.41 197.199C1123.5 201.795 1116.25 201.607 1116.25 201.607H1113.35V201.253H1113.35V193.309ZM1113.35 206.405H1116.67C1117.34 206.405 1119.66 206.512 1120.51 206.551C1120.85 206.564 1121.19 206.627 1121.52 206.738C1121.64 206.78 1121.75 206.827 1121.87 206.88C1122.39 207.052 1122.87 207.305 1123.3 207.629C1123.59 207.825 1123.84 208.068 1124.04 208.348C1124.36 208.804 1124.59 209.312 1124.72 209.849C1124.82 210.225 1124.87 210.611 1124.87 211C1124.91 211.74 1124.73 212.474 1124.36 213.115C1123.82 213.966 1123.04 214.633 1122.12 215.026C1120.39 215.733 1118.54 216.087 1116.67 216.067H1113.35V206.405Z" fill="#6C63FF"/>
<path d="M1476.85 880.08C1488.83 880.08 1498.55 870.366 1498.55 858.384C1498.55 846.402 1488.83 836.688 1476.85 836.688C1464.86 836.688 1455.14 846.402 1455.14 858.384C1455.14 870.366 1464.86 880.08 1476.85 880.08Z" fill="#FF6584"/>
<path d="M1647.94 1094.56V847.528" stroke="#3F3D56" stroke-width="2" stroke-miterlimit="10"/>
<path d="M1647.94 882.462C1667.24 882.462 1682.89 866.821 1682.89 847.528C1682.89 828.235 1667.24 812.595 1647.94 812.595C1628.64 812.595 1613 828.235 1613 847.528C1613 866.821 1628.64 882.462 1647.94 882.462Z" fill="#3F3D56"/>
<path d="M1579.12 985.841C1528.64 1063.22 1542.47 1161.64 1542.47 1161.64C1542.47 1161.64 1638.14 1134.6 1688.62 1057.22C1739.1 979.838 1725.27 881.418 1725.27 881.418C1725.27 881.418 1629.6 908.459 1579.12 985.841Z" fill="#3F3D56"/>
<path d="M1542.2 1160.74C1542.2 1160.74 1540.97 1160.55 1538.71 1160.09C1536.91 1159.72 1534.42 1159.2 1531.39 1158.48C1504.28 1152.09 1432.2 1130.49 1385.07 1073.7C1326.09 1002.58 1328.57 903.227 1328.57 903.227C1328.57 903.227 1418.76 917.876 1478.19 981.739C1480.76 984.483 1483.27 987.327 1485.7 990.272C1537.03 1052.15 1541.81 1135.4 1542.19 1155.99C1542.24 1159.07 1542.2 1160.74 1542.2 1160.74Z" fill="#BFBBFF"/>
<path d="M1505.82 985.841C1556.3 1063.22 1542.47 1161.64 1542.47 1161.64C1542.47 1161.64 1446.8 1134.6 1396.32 1057.22C1345.84 979.838 1359.67 881.418 1359.67 881.418C1359.67 881.418 1455.35 908.459 1505.82 985.841Z" stroke="#3F3D56" stroke-width="2" stroke-miterlimit="10"/>
<path opacity="0.1" d="M1542.19 1155.99C1540.86 1157.59 1539.68 1158.97 1538.71 1160.09C1536.57 1162.53 1535.35 1163.81 1535.35 1163.81C1535.35 1163.81 1533.87 1161.96 1531.39 1158.48C1517.76 1139.48 1473.9 1071.92 1477.28 993.879C1477.47 989.789 1477.77 985.742 1478.19 981.739C1480.76 984.483 1483.27 987.327 1485.7 990.272C1537.03 1052.15 1541.81 1135.4 1542.19 1155.99Z" fill="black"/>
<path d="M1617.03 999.523C1613.04 1091.82 1544.51 1163.82 1544.51 1163.82C1544.51 1163.82 1482.44 1086.17 1486.43 993.881C1490.42 901.586 1558.96 829.588 1558.96 829.588C1558.96 829.588 1621.02 907.228 1617.03 999.523Z" fill="#BFBBFF"/>
<path d="M1544.51 1161.2L1559.58 833.353" stroke="#3F3D56" stroke-width="2" stroke-miterlimit="10"/>
<path d="M106.345 1161.56H1671.8" stroke="#3F3D56" stroke-width="2" stroke-miterlimit="10"/>
<path d="M438.828 761.738C482.495 761.738 517.894 726.352 517.894 682.7C517.894 639.049 482.495 603.663 438.828 603.663C395.161 603.663 359.762 639.049 359.762 682.7C359.762 726.352 395.161 761.738 438.828 761.738Z" fill="#BFBBFF"/>
<path d="M304.436 947.753C348.103 947.753 383.502 912.366 383.502 868.715C383.502 825.064 348.103 789.677 304.436 789.677C260.768 789.677 225.369 825.064 225.369 868.715C225.369 912.366 260.768 947.753 304.436 947.753Z" fill="#BFBBFF"/>
<path d="M139.03 1096.31C182.697 1096.31 218.096 1060.92 218.096 1017.27C218.096 973.617 182.697 938.231 139.03 938.231C95.3626 938.231 59.9634 973.617 59.9634 1017.27C59.9634 1060.92 95.3626 1096.31 139.03 1096.31Z" fill="#BFBBFF"/>
<path d="M138.959 1160.21V1016.83" stroke="#3F3D56" stroke-width="2" stroke-miterlimit="10"/>
<path d="M138.959 1037.11C150.161 1037.11 159.241 1028.03 159.241 1016.83C159.241 1005.64 150.161 996.559 138.959 996.559C127.758 996.559 118.677 1005.64 118.677 1016.83C118.677 1028.03 127.758 1037.11 138.959 1037.11Z" fill="#3F3D56"/>
<path d="M138.959 1105.2C138.959 1105.2 136.062 1042.9 76.6641 1050.14L138.959 1105.2Z" fill="#3F3D56"/>
<path d="M438.878 1161.21V682.991" stroke="#3F3D56" stroke-width="2" stroke-miterlimit="10"/>
<path d="M438.878 703.039C450.079 703.039 459.16 693.961 459.16 682.764C459.16 671.567 450.079 662.489 438.878 662.489C427.676 662.489 418.596 671.567 418.596 682.764C418.596 693.961 427.676 703.039 438.878 703.039Z" fill="#3F3D56"/>
<path d="M376.583 1049.03C387.784 1049.03 396.865 1039.96 396.865 1028.76C396.865 1017.56 387.784 1008.48 376.583 1008.48C365.381 1008.48 356.301 1017.56 356.301 1028.76C356.301 1039.96 365.381 1049.03 376.583 1049.03Z" fill="#3F3D56"/>
<path d="M438.878 786.329C438.878 786.329 435.981 724.033 376.583 731.274L438.878 786.329Z" fill="#3F3D56"/>
<path d="M438.878 962.929C438.878 962.929 435.981 900.634 376.583 907.875L438.878 962.929Z" fill="#3F3D56"/>
<path d="M438.878 1155.64C438.878 1155.64 451.916 1034.55 376.583 1028.76" stroke="#3F3D56" stroke-width="2" stroke-miterlimit="10"/>
<path d="M501.181 1049.03C512.383 1049.03 521.464 1039.96 521.464 1028.76C521.464 1017.56 512.383 1008.48 501.181 1008.48C489.98 1008.48 480.899 1017.56 480.899 1028.76C480.899 1039.96 489.98 1049.03 501.181 1049.03Z" fill="#3F3D56"/>
<path d="M438.887 1155.64C438.887 1155.64 425.848 1034.55 501.181 1028.76" stroke="#3F3D56" stroke-width="2" stroke-miterlimit="10"/>
<path d="M502.417 858.849C513.618 858.849 522.699 849.772 522.699 838.574C522.699 827.377 513.618 818.3 502.417 818.3C491.215 818.3 482.135 827.377 482.135 838.574C482.135 849.772 491.215 858.849 502.417 858.849Z" fill="#3F3D56"/>
<path d="M440.122 958.994C440.122 958.994 427.083 844.367 502.417 838.574" stroke="#3F3D56" stroke-width="2" stroke-miterlimit="10"/>
<path d="M304.508 1160.54V868.627" stroke="#3F3D56" stroke-width="2" stroke-miterlimit="10"/>
<path d="M304.508 888.901C315.709 888.901 324.79 879.824 324.79 868.627C324.79 857.429 315.709 848.352 304.508 848.352C293.306 848.352 284.226 857.429 284.226 868.627C284.226 879.824 293.306 888.901 304.508 888.901Z" fill="#3F3D56"/>
<path d="M304.508 951.197C304.508 951.197 301.61 888.901 242.213 896.142L304.508 951.197Z" fill="#3F3D56"/>
<path d="M304.508 1154.96C304.508 1154.96 317.546 1035.17 242.213 1029.38" stroke="#3F3D56" stroke-width="2" stroke-miterlimit="10"/>
<path d="M242.213 1049.65C253.414 1049.65 262.495 1040.57 262.495 1029.38C262.495 1018.18 253.414 1009.1 242.213 1009.1C231.011 1009.1 221.931 1018.18 221.931 1029.38C221.931 1040.57 231.011 1049.65 242.213 1049.65Z" fill="#3F3D56"/>
<path d="M1418.28 717.058C1436.68 717.058 1451.59 702.152 1451.59 683.763C1451.59 665.375 1436.68 650.469 1418.28 650.469C1399.89 650.469 1384.98 665.375 1384.98 683.763C1384.98 702.152 1399.89 717.058 1418.28 717.058Z" fill="#F2F2F2"/>
<path opacity="0.1" d="M1065.84 926.631C1023.36 945.942 968.641 944.573 968.641 944.573H909.429V933.271C933.558 926.538 966.92 922.376 1003.8 922.376C1024.55 922.304 1045.29 923.726 1065.84 926.631Z" fill="black"/>
<path opacity="0.1" d="M1137.03 959.371C1137.03 979.81 1077.37 996.365 1003.8 996.365C930.227 996.365 870.571 979.81 870.571 959.371C870.571 949.179 885.411 939.949 909.429 933.271V944.573H968.641C968.641 944.573 1023.36 945.942 1065.84 926.631C1108.16 932.809 1137.03 945.147 1137.03 959.371Z" fill="black"/>
<path d="M1020.81 729.025H964.128V785.792H1020.81V729.025Z" fill="#2F2E41"/>
<path d="M985.209 769.17C985.209 769.17 989.901 785.586 981.689 786.758C976.594 787.552 971.765 789.564 967.613 792.621L982.862 812.555H1011.01L1028.61 794.967C1028.61 794.967 1005.15 777.378 1009.84 766.824C1014.53 756.271 985.209 769.17 985.209 769.17Z" fill="#FFB9B9"/>
<path opacity="0.1" d="M985.209 769.17C985.209 769.17 989.901 785.586 981.689 786.758C976.594 787.552 971.765 789.564 967.613 792.621L982.862 812.555H1011.01L1028.61 794.967C1028.61 794.967 1005.15 777.378 1009.84 766.824C1014.53 756.271 985.209 769.17 985.209 769.17Z" fill="black"/>
<path d="M992.247 973.201L1019.23 982.581L1037.99 983.753L1036.82 967.337L998.112 955.893L992.247 973.201Z" fill="#FFB9B9"/>
<path d="M1026.85 969.683C1026.85 969.683 1026.85 986.099 1029.2 986.099C1031.54 986.099 1063.21 982.581 1072.6 986.099C1081.98 989.617 1096.06 976.718 1089.02 969.683C1081.98 962.648 1070.5 952.094 1063.34 954.439C1056.18 956.785 1026.85 962.647 1026.85 962.647L1026.85 969.683Z" fill="#2F2E41"/>
<path d="M940.634 954.439C940.634 954.439 926.557 982.581 935.942 984.927C945.326 987.272 955.883 983.754 957.056 982.581C958.229 981.409 974.651 976.718 976.997 979.064C979.343 981.409 979.343 969.683 979.343 969.683L940.634 954.439Z" fill="#2F2E41"/>
<path d="M952.364 915.744C952.364 915.744 930.077 946.231 946.499 954.439C962.921 962.647 1041.51 962.647 1047.38 954.439C1053.24 946.231 1055.59 920.434 1047.38 918.089C1039.17 915.744 952.364 915.744 952.364 915.744Z" fill="#2F2E41"/>
<path opacity="0.2" d="M952.364 915.744C952.364 915.744 930.077 946.231 946.499 954.439C962.921 962.647 1041.51 962.647 1047.38 954.439C1053.24 946.231 1055.59 920.434 1047.38 918.089C1039.17 915.744 952.364 915.744 952.364 915.744Z" fill="black"/>
<path d="M994.593 777.378C1009.49 777.378 1021.57 765.303 1021.57 750.408C1021.57 735.513 1009.49 723.438 994.593 723.438C979.692 723.438 967.613 735.513 967.613 750.408C967.613 765.303 979.692 777.378 994.593 777.378Z" fill="#FFB9B9"/>
<path d="M952.364 792.621L975.825 787.931C975.825 787.931 981.69 806.693 1000.46 803.175C1019.23 799.657 1023.92 787.931 1023.92 787.931C1023.92 787.931 1037.99 793.794 1039.17 793.794C1040.34 793.794 1055.59 799.657 1055.59 803.175C1055.59 806.693 1037.99 841.87 1037.99 841.87L1040.34 905.19L953.537 902.845L959.402 840.698L952.364 792.621Z" fill="#6C63FF"/>
<path d="M939.461 823.109C939.461 823.109 932.423 885.256 937.115 889.947C941.807 894.637 960.575 907.536 960.575 907.536V893.464L951.191 875.876L960.575 834.835L939.461 823.109Z" fill="#FFB9B9"/>
<path d="M1060.87 821.35C1060.87 821.35 1056.76 885.256 1056.76 887.601C1056.76 889.947 1046.21 898.155 1042.69 898.155C1039.17 898.155 1036.82 892.292 1036.82 892.292L1045.03 882.911L1039.17 834.835L1060.87 821.35Z" fill="#FFB9B9"/>
<path d="M1049.72 911.053C1049.72 911.053 1102.51 881.738 1103.68 911.053C1104.86 940.368 1076.7 952.094 1076.7 952.094C1076.7 952.094 1003.98 973.894 1001.04 965.926C998.112 957.957 992.246 945.058 996.938 943.886C1001.63 942.713 1007.5 940.368 1009.84 942.713C1012.19 945.058 1041.51 925.124 1041.51 925.124L1049.72 911.053Z" fill="#2F2E41"/>
<path opacity="0.2" d="M1074.36 907.536C1074.36 907.536 1063.8 912.226 1060.28 915.744C1056.76 919.262 1041.51 925.125 1041.51 925.125" stroke="black" stroke-width="2" stroke-miterlimit="10"/>
<path d="M959.402 794.967L952.364 792.621C952.364 792.621 926.558 819.591 934.769 826.627C942.98 833.662 947.672 836.007 950.018 838.352C952.364 840.698 964.094 841.87 964.094 841.87L959.402 794.967Z" fill="#6C63FF"/>
<path d="M1045.03 800.83L1055.59 803.175C1055.59 803.175 1063.8 820.764 1066.15 823.109C1068.49 825.454 1062.63 824.282 1059.11 828.972C1055.59 833.662 1052.07 841.87 1045.03 841.87C1037.99 841.87 1028.61 830.144 1028.61 830.144L1045.03 800.83Z" fill="#6C63FF"/>
<path d="M954.71 921.607C954.71 921.607 910.136 889.947 894.886 913.399C879.637 936.85 960.575 968.51 972.305 973.201C984.036 977.891 994.593 982.581 994.593 982.581C994.593 982.581 1005.15 956.784 1005.15 952.094C1005.15 947.404 996.939 947.404 994.593 947.404C992.247 947.404 981.69 945.059 979.343 941.541C976.997 938.023 954.71 921.607 954.71 921.607Z" fill="#2F2E41"/>
<path opacity="0.2" d="M930.077 913.398C930.077 913.398 941.807 922.779 952.364 925.124C962.921 927.47 966.44 933.333 966.44 933.333" stroke="black" stroke-width="2" stroke-miterlimit="10"/>
<path d="M946.618 869.309L947.555 918.958C947.586 920.597 948.264 922.159 949.442 923.301C950.619 924.443 952.201 925.074 953.842 925.055L1046.27 924.017C1047.84 923.999 1049.35 923.385 1050.49 922.298C1051.63 921.211 1052.31 919.732 1052.4 918.16L1055.21 869.55C1055.26 868.705 1055.13 867.859 1054.84 867.064C1054.55 866.269 1054.11 865.541 1053.52 864.926C1052.94 864.31 1052.24 863.82 1051.46 863.485C1050.69 863.15 1049.85 862.977 1049 862.977H952.835C952.008 862.977 951.19 863.142 950.428 863.461C949.666 863.781 948.976 864.249 948.397 864.839C947.818 865.429 947.363 866.128 947.057 866.895C946.752 867.663 946.603 868.484 946.618 869.309Z" fill="#575A89"/>
<path d="M935.927 792.917C938.445 787.364 941.827 782.153 943.44 776.273C945.372 769.226 944.619 761.77 944.389 754.467C944.022 748.007 944.573 741.529 946.025 735.224C947.499 728.889 950.809 723.129 955.54 718.664C967.833 707.694 990.33 706.907 1005.34 711.473C1011.26 713.274 1017.56 716.702 1019.03 722.709C1019.25 723.616 1019.35 724.55 1019.6 725.45C1020.83 729.923 1025.4 732.753 1027.05 737.087C1029.19 742.693 1025.9 748.789 1025.47 754.773C1024.96 761.758 1028.4 768.358 1031.78 774.489C1033.8 778.134 1035.89 782.017 1035.69 786.175C1035.52 788.45 1034.83 790.655 1033.67 792.617C1031.51 796.175 1028.49 799.127 1024.88 801.196C1021.27 803.265 1017.19 804.383 1013.03 804.446C1010.32 804.663 1007.62 804.024 1005.29 802.621C1001.63 800.1 1000.56 795.022 1001.32 790.642C1002.08 786.262 1004.31 782.3 1006.05 778.21C1006.59 776.955 1007.07 775.678 1007.51 774.389C1012.92 771.373 1017.08 766.546 1019.27 760.759C1021.46 754.972 1021.53 748.598 1019.48 742.763C1017.42 736.927 1013.37 732.005 1008.04 728.866C1002.7 725.727 996.432 724.573 990.33 725.608C984.228 726.643 978.688 729.799 974.688 734.521C970.689 739.242 968.487 745.225 968.471 751.411C968.455 757.598 970.627 763.591 974.603 768.333C978.579 773.075 984.103 776.259 990.199 777.325C991.513 783.943 990.916 790.798 988.477 797.089C986.26 802.207 983.475 807.061 980.175 811.559C978.826 813.865 977.027 815.877 974.886 817.476C973.475 818.311 971.96 818.958 970.381 819.399C963.755 821.529 956.778 823.243 949.884 822.285C942.991 821.327 936.164 817.171 933.815 810.622C931.757 804.883 933.41 798.47 935.927 792.917Z" fill="#2F2E41"/>
<path d="M993.285 751.484C1009.1 751.484 1021.92 744.222 1021.92 735.265C1021.92 726.307 1009.1 719.046 993.285 719.046C977.472 719.046 964.653 726.307 964.653 735.265C964.653 744.222 977.472 751.484 993.285 751.484Z" fill="#2F2E41"/>
<path opacity="0.3" d="M1430.73 685.699C1430.3 684.621 1429.5 683.732 1428.47 683.188C1427.83 682.813 1427.14 682.532 1426.42 682.354C1426.91 682.12 1427.35 681.81 1427.74 681.436C1428.31 680.903 1428.74 680.235 1428.99 679.492C1429.23 678.732 1429.32 677.935 1429.28 677.14C1429.27 675.82 1428.9 674.527 1428.21 673.403C1427.44 672.376 1426.39 671.594 1425.18 671.151C1424.01 670.697 1422.77 670.445 1421.51 670.408V665.078L1418.29 667.163V670.417H1415.71V666.996L1412.4 665.078V670.417H1405.38L1407.64 674.421C1408.12 674.388 1408.6 674.453 1409.05 674.612C1409.28 674.714 1409.46 674.891 1409.58 675.113C1409.71 675.587 1409.77 676.081 1409.73 676.573V691.021C1409.76 691.51 1409.71 692.001 1409.58 692.472C1409.47 692.689 1409.41 692.881 1409.16 692.998C1408.91 693.114 1408.91 693.106 1408.21 693.106H1408.21L1405.38 697.11H1412.4V702.449H1415.7V697.11H1418.28V702.449H1421.51V697.077C1423.14 697.048 1424.75 696.758 1426.29 696.218C1427.72 695.707 1428.97 694.795 1429.9 693.59C1430.7 692.308 1431.14 690.832 1431.17 689.319C1431.26 688.096 1431.11 686.867 1430.73 685.699ZM1415.7 674.921H1415.7V674.81H1417.96C1419.22 674.81 1423.45 674.373 1423.52 677.944C1423.59 681.515 1417.96 681.369 1417.96 681.369H1415.7V681.094H1415.7V674.921ZM1415.7 685.098H1418.28C1418.81 685.098 1420.61 685.181 1421.26 685.212C1421.53 685.222 1421.8 685.271 1422.05 685.357C1422.14 685.389 1422.23 685.426 1422.33 685.467C1422.73 685.601 1423.1 685.797 1423.44 686.049C1423.66 686.201 1423.85 686.39 1424.01 686.608C1424.26 686.962 1424.43 687.357 1424.54 687.774C1424.62 688.066 1424.66 688.366 1424.66 688.668C1424.68 689.243 1424.54 689.814 1424.25 690.312C1423.84 690.973 1423.23 691.491 1422.52 691.797C1421.17 692.346 1419.73 692.621 1418.28 692.606H1415.7V685.098Z" fill="#6C63FF"/>
<path d="M119.316 833.59C137.711 833.59 152.623 818.684 152.623 800.295C152.623 781.907 137.711 767 119.316 767C100.921 767 86.0093 781.907 86.0093 800.295C86.0093 818.684 100.921 833.59 119.316 833.59Z" fill="#F2F2F2"/>
<path opacity="0.3" d="M131.767 802.231C131.331 801.153 130.529 800.264 129.502 799.72C128.863 799.345 128.174 799.064 127.455 798.886C127.939 798.652 128.383 798.342 128.768 797.968C129.343 797.435 129.775 796.767 130.026 796.024C130.26 795.263 130.356 794.467 130.308 793.672C130.304 792.352 129.936 791.059 129.244 789.935C128.472 788.908 127.42 788.125 126.213 787.683C125.042 787.228 123.802 786.977 122.546 786.94V781.61L119.322 783.695V786.949H116.742V783.528L113.437 781.61V786.949H106.417L108.673 790.952C109.152 790.92 109.632 790.985 110.084 791.144C110.311 791.246 110.496 791.423 110.608 791.645C110.746 792.119 110.797 792.613 110.761 793.105V807.553C110.796 808.042 110.744 808.533 110.608 809.004C110.503 809.221 110.447 809.413 110.197 809.53C109.947 809.646 109.939 809.638 109.246 809.638H109.238L106.417 813.642H113.429V818.981H116.734V813.642H119.314V818.981H122.538V813.609C124.169 813.58 125.786 813.29 127.326 812.75C128.755 812.239 130.006 811.326 130.929 810.122C131.733 808.84 132.173 807.364 132.202 805.851C132.287 804.627 132.14 803.399 131.767 802.231ZM116.734 791.453H116.735V791.342H118.989C120.257 791.342 124.482 790.905 124.552 794.476C124.623 798.047 118.989 797.901 118.989 797.901H116.735V797.626H116.734L116.734 791.453ZM116.734 801.63H119.314C119.837 801.63 121.64 801.713 122.296 801.743C122.564 801.754 122.829 801.803 123.083 801.889C123.175 801.921 123.263 801.958 123.358 801.999C123.758 802.132 124.133 802.329 124.47 802.581C124.692 802.733 124.886 802.922 125.045 803.14C125.289 803.494 125.467 803.889 125.571 804.306C125.648 804.598 125.688 804.898 125.689 805.2C125.716 805.775 125.576 806.346 125.287 806.844C124.873 807.505 124.266 808.023 123.548 808.328C122.205 808.878 120.765 809.153 119.314 809.138H116.734L116.734 801.63Z" fill="#6C63FF"/>
</svg>
