<svg width="690" height="2731" viewBox="0 0 690 2731" fill="none" xmlns="http://www.w3.org/2000/svg">
<path fill-rule="evenodd" clip-rule="evenodd" d="M678.5 5L582.542 118.375C486.583 231.75 294.667 458.5 198.708 685.25C102.75 912 102.75 1138.75 157.583 1365.5C212.417 1592.25 322.083 1819 322.083 2045.75C322.083 2272.5 212.417 2499.25 157.583 2612.62L102.75 2726L20.5 2726L20.5 2612.62C20.5 2499.25 20.5 2272.5 20.5 2045.75C20.5 1819 20.5001 1592.25 20.5001 1365.5C20.5001 1138.75 20.5001 912 20.5001 685.25C20.5001 458.5 20.5001 231.75 20.5001 118.375L20.5001 4.99997L678.5 5Z" stroke="#4C6EED" stroke-width="10"/>
<path fill-rule="evenodd" clip-rule="evenodd" d="M656 0L560.333 113.792C464.667 227.583 273.333 455.167 177.667 682.75C82 910.333 82 1137.92 136.667 1365.5C191.333 1593.08 300.667 1820.67 300.667 2048.25C300.667 2275.83 191.333 2503.42 136.667 2617.21L82 2731L-2.01937e-05 2731L-1.52197e-05 2617.21C-1.02457e-05 2503.42 -2.97707e-07 2275.83 9.65028e-06 2048.25C1.95983e-05 1820.67 2.95462e-05 1593.08 3.94942e-05 1365.5C4.94422e-05 1137.92 5.93902e-05 910.333 6.93382e-05 682.75C7.92862e-05 455.167 8.92341e-05 227.583 9.42081e-05 113.792L9.91821e-05 -2.86747e-05L656 0Z" fill="#4460F1"/>
</svg>
