<svg xmlns="http://www.w3.org/2000/svg" width="1498.205" height="719.378" viewBox="0 0 1498.205 719.378">
  <g id="Group_2" data-name="Group 2" transform="translate(-27.189 -932.04)">
    <path id="Path_3" data-name="Path 3" d="M1633.859,749.636c-137.323,383.556-121.482,380.208-236.844,465.416s-262.489-53.984-314.6-253.384S722.755,726.145,543.5,910.088,357.159,1160.4,246.6,1457.223H1633.859Z" transform="translate(-110.965 191.695)" fill="#4361f4"/>
    <path id="Path_6" data-name="Path 6" d="M1546.054,831.779c-45.029,182.807-84.717,294.2-218.474,373.861s-322.018-86.911-370.832-259.251c-15.474-54.632-70.74-194.2-129.864-245.3-61.732-73.966-309.491-79.6-424.17,28.98C234.808,889.051,142.666,1092.83,53.81,1361.2H1546.054Z" transform="translate(-23.16 287.718)" fill="none" stroke="#8296f5" stroke-width="5"/>
  </g>
</svg>
